<mxfile host="app.diagrams.net" modified="2024-02-05T21:59:50.321Z" agent="Mozilla/5.0 (Windows NT 10.0; Win64; x64) AppleWebKit/537.36 (KHTML, like Gecko) Chrome/121.0.0.0 Safari/537.36" etag="RtI9MLVscmkx8e7b4Anl" version="23.1.1" type="github">
  <diagram name="Stránka-1" id="vvELG84VfLxlIlp0yOWw">
    <mxGraphModel dx="1372" dy="2005" grid="1" gridSize="10" guides="1" tooltips="1" connect="1" arrows="1" fold="1" page="1" pageScale="1" pageWidth="827" pageHeight="1169" math="0" shadow="0">
      <root>
        <mxCell id="0" />
        <mxCell id="1" parent="0" />
        <mxCell id="UoMjuABYHgXqo_ZKbVsD-1" value="Uživatel" style="shape=umlActor;verticalLabelPosition=bottom;verticalAlign=top;html=1;outlineConnect=0;" parent="1" vertex="1">
          <mxGeometry x="20" y="-750" width="30" height="60" as="geometry" />
        </mxCell>
        <mxCell id="CDrKOG7dcPMyQ5WuwZqR-2" value="Přihlásit se&amp;nbsp;&lt;br&gt;upozornění" style="ellipse;whiteSpace=wrap;html=1;" parent="1" vertex="1">
          <mxGeometry x="430" y="-10" width="150" height="50" as="geometry" />
        </mxCell>
        <mxCell id="CDrKOG7dcPMyQ5WuwZqR-3" value="Vytvořit objednávku" style="ellipse;whiteSpace=wrap;html=1;" parent="1" vertex="1">
          <mxGeometry x="190" y="-790" width="150" height="50" as="geometry" />
        </mxCell>
        <mxCell id="CDrKOG7dcPMyQ5WuwZqR-4" value="Vytvořit oblíbený list" style="ellipse;whiteSpace=wrap;html=1;" parent="1" vertex="1">
          <mxGeometry x="190" y="-290" width="150" height="50" as="geometry" />
        </mxCell>
        <mxCell id="CDrKOG7dcPMyQ5WuwZqR-5" value="Publikovat recenzi" style="ellipse;whiteSpace=wrap;html=1;" parent="1" vertex="1">
          <mxGeometry x="190" y="100" width="150" height="50" as="geometry" />
        </mxCell>
        <mxCell id="CDrKOG7dcPMyQ5WuwZqR-6" value="" style="endArrow=none;html=1;rounded=0;entryX=0;entryY=0.5;entryDx=0;entryDy=0;" parent="1" target="CDrKOG7dcPMyQ5WuwZqR-3" edge="1">
          <mxGeometry width="50" height="50" relative="1" as="geometry">
            <mxPoint x="60" y="-720" as="sourcePoint" />
            <mxPoint x="110" y="-740" as="targetPoint" />
          </mxGeometry>
        </mxCell>
        <mxCell id="CDrKOG7dcPMyQ5WuwZqR-7" value="" style="endArrow=none;html=1;rounded=0;entryX=0;entryY=0.5;entryDx=0;entryDy=0;" parent="1" target="CDrKOG7dcPMyQ5WuwZqR-4" edge="1">
          <mxGeometry width="50" height="50" relative="1" as="geometry">
            <mxPoint x="60" y="-720" as="sourcePoint" />
            <mxPoint x="120" y="-690" as="targetPoint" />
          </mxGeometry>
        </mxCell>
        <mxCell id="CDrKOG7dcPMyQ5WuwZqR-8" value="" style="endArrow=none;html=1;rounded=0;entryX=0;entryY=0.5;entryDx=0;entryDy=0;" parent="1" target="CDrKOG7dcPMyQ5WuwZqR-5" edge="1">
          <mxGeometry width="50" height="50" relative="1" as="geometry">
            <mxPoint x="60" y="-720" as="sourcePoint" />
            <mxPoint x="110" y="-680" as="targetPoint" />
          </mxGeometry>
        </mxCell>
        <mxCell id="CDrKOG7dcPMyQ5WuwZqR-9" value="Odběr online verze&lt;br&gt;zakoupených mang" style="ellipse;whiteSpace=wrap;html=1;" parent="1" vertex="1">
          <mxGeometry x="190" y="240" width="150" height="50" as="geometry" />
        </mxCell>
        <mxCell id="CDrKOG7dcPMyQ5WuwZqR-10" value="Nepřihlášený&lt;br&gt;uživatel" style="shape=umlActor;verticalLabelPosition=bottom;verticalAlign=top;html=1;outlineConnect=0;" parent="1" vertex="1">
          <mxGeometry x="20" y="-1040" width="30" height="60" as="geometry" />
        </mxCell>
        <mxCell id="CDrKOG7dcPMyQ5WuwZqR-12" value="Přihlásit se" style="ellipse;whiteSpace=wrap;html=1;" parent="1" vertex="1">
          <mxGeometry x="190" y="-1070" width="150" height="50" as="geometry" />
        </mxCell>
        <mxCell id="CDrKOG7dcPMyQ5WuwZqR-13" value="Vytvořit účet" style="ellipse;whiteSpace=wrap;html=1;" parent="1" vertex="1">
          <mxGeometry x="190" y="-1150" width="150" height="50" as="geometry" />
        </mxCell>
        <mxCell id="CDrKOG7dcPMyQ5WuwZqR-14" value="" style="endArrow=none;html=1;rounded=0;entryX=0;entryY=0.5;entryDx=0;entryDy=0;" parent="1" target="CDrKOG7dcPMyQ5WuwZqR-13" edge="1">
          <mxGeometry width="50" height="50" relative="1" as="geometry">
            <mxPoint x="60" y="-1020" as="sourcePoint" />
            <mxPoint x="150" y="-1120" as="targetPoint" />
          </mxGeometry>
        </mxCell>
        <mxCell id="CDrKOG7dcPMyQ5WuwZqR-15" value="" style="endArrow=none;html=1;rounded=0;entryX=0;entryY=0.5;entryDx=0;entryDy=0;" parent="1" target="CDrKOG7dcPMyQ5WuwZqR-12" edge="1">
          <mxGeometry width="50" height="50" relative="1" as="geometry">
            <mxPoint x="60" y="-1020" as="sourcePoint" />
            <mxPoint x="150" y="-1000" as="targetPoint" />
          </mxGeometry>
        </mxCell>
        <mxCell id="CDrKOG7dcPMyQ5WuwZqR-17" value="" style="endArrow=none;html=1;rounded=0;entryX=0;entryY=0.5;entryDx=0;entryDy=0;" parent="1" target="CDrKOG7dcPMyQ5WuwZqR-19" edge="1">
          <mxGeometry width="50" height="50" relative="1" as="geometry">
            <mxPoint x="60" y="-1020" as="sourcePoint" />
            <mxPoint x="130" y="-960" as="targetPoint" />
          </mxGeometry>
        </mxCell>
        <mxCell id="CDrKOG7dcPMyQ5WuwZqR-19" value="Vyhledat&amp;nbsp;&lt;br&gt;Mangu / filtr" style="ellipse;whiteSpace=wrap;html=1;" parent="1" vertex="1">
          <mxGeometry x="190" y="-990" width="150" height="50" as="geometry" />
        </mxCell>
        <mxCell id="CDrKOG7dcPMyQ5WuwZqR-20" value="" style="endArrow=none;html=1;rounded=0;entryX=0;entryY=1;entryDx=0;entryDy=0;" parent="1" target="CDrKOG7dcPMyQ5WuwZqR-19" edge="1">
          <mxGeometry width="50" height="50" relative="1" as="geometry">
            <mxPoint x="60" y="-720" as="sourcePoint" />
            <mxPoint x="80" y="-900" as="targetPoint" />
          </mxGeometry>
        </mxCell>
        <mxCell id="CDrKOG7dcPMyQ5WuwZqR-23" value="Zobrazit informace o&amp;nbsp;&lt;br&gt;manze" style="ellipse;whiteSpace=wrap;html=1;" parent="1" vertex="1">
          <mxGeometry x="430" y="-990" width="150" height="50" as="geometry" />
        </mxCell>
        <mxCell id="CDrKOG7dcPMyQ5WuwZqR-27" value="" style="endArrow=none;html=1;rounded=0;exitX=1;exitY=0.5;exitDx=0;exitDy=0;entryX=0;entryY=0.5;entryDx=0;entryDy=0;" parent="1" source="CDrKOG7dcPMyQ5WuwZqR-19" target="CDrKOG7dcPMyQ5WuwZqR-23" edge="1">
          <mxGeometry width="50" height="50" relative="1" as="geometry">
            <mxPoint x="440" y="-920" as="sourcePoint" />
            <mxPoint x="490" y="-970" as="targetPoint" />
          </mxGeometry>
        </mxCell>
        <mxCell id="CDrKOG7dcPMyQ5WuwZqR-28" value="Zobrazit informace o&amp;nbsp;&lt;br&gt;postavách" style="ellipse;whiteSpace=wrap;html=1;" parent="1" vertex="1">
          <mxGeometry x="430" y="-930" width="150" height="50" as="geometry" />
        </mxCell>
        <mxCell id="CDrKOG7dcPMyQ5WuwZqR-29" value="Zobrazit dostupnost&lt;br&gt;mangy" style="ellipse;whiteSpace=wrap;html=1;" parent="1" vertex="1">
          <mxGeometry x="430" y="-1050" width="150" height="50" as="geometry" />
        </mxCell>
        <mxCell id="CDrKOG7dcPMyQ5WuwZqR-30" value="" style="endArrow=none;html=1;rounded=0;exitX=1;exitY=0.5;exitDx=0;exitDy=0;entryX=0;entryY=0.5;entryDx=0;entryDy=0;" parent="1" source="CDrKOG7dcPMyQ5WuwZqR-19" target="CDrKOG7dcPMyQ5WuwZqR-28" edge="1">
          <mxGeometry width="50" height="50" relative="1" as="geometry">
            <mxPoint x="320" y="-880" as="sourcePoint" />
            <mxPoint x="370" y="-930" as="targetPoint" />
          </mxGeometry>
        </mxCell>
        <mxCell id="CDrKOG7dcPMyQ5WuwZqR-31" value="" style="endArrow=none;html=1;rounded=0;exitX=1;exitY=0.5;exitDx=0;exitDy=0;entryX=0;entryY=0.5;entryDx=0;entryDy=0;" parent="1" source="CDrKOG7dcPMyQ5WuwZqR-19" target="CDrKOG7dcPMyQ5WuwZqR-29" edge="1">
          <mxGeometry width="50" height="50" relative="1" as="geometry">
            <mxPoint x="350" y="-930" as="sourcePoint" />
            <mxPoint x="400" y="-980" as="targetPoint" />
          </mxGeometry>
        </mxCell>
        <mxCell id="CDrKOG7dcPMyQ5WuwZqR-33" value="Zrušit dostávání&lt;br&gt;upozornění" style="ellipse;whiteSpace=wrap;html=1;" parent="1" vertex="1">
          <mxGeometry x="650" y="-10" width="150" height="50" as="geometry" />
        </mxCell>
        <mxCell id="CDrKOG7dcPMyQ5WuwZqR-34" value="&amp;lt;&amp;lt;extend&amp;gt;&amp;gt;" style="html=1;verticalAlign=bottom;endArrow=open;dashed=1;endSize=8;curved=0;rounded=0;entryX=1;entryY=0.5;entryDx=0;entryDy=0;exitX=0;exitY=0.5;exitDx=0;exitDy=0;" parent="1" source="CDrKOG7dcPMyQ5WuwZqR-33" target="CDrKOG7dcPMyQ5WuwZqR-2" edge="1">
          <mxGeometry relative="1" as="geometry">
            <mxPoint x="470" y="-520" as="sourcePoint" />
            <mxPoint x="390" y="-520" as="targetPoint" />
          </mxGeometry>
        </mxCell>
        <mxCell id="CDrKOG7dcPMyQ5WuwZqR-38" value="Upravit údaje" style="ellipse;whiteSpace=wrap;html=1;" parent="1" vertex="1">
          <mxGeometry x="430" y="-790" width="150" height="50" as="geometry" />
        </mxCell>
        <mxCell id="CDrKOG7dcPMyQ5WuwZqR-39" value="Přidat položku" style="ellipse;whiteSpace=wrap;html=1;" parent="1" vertex="1">
          <mxGeometry x="430" y="-730" width="150" height="50" as="geometry" />
        </mxCell>
        <mxCell id="CDrKOG7dcPMyQ5WuwZqR-40" value="Odebrat položku" style="ellipse;whiteSpace=wrap;html=1;" parent="1" vertex="1">
          <mxGeometry x="430" y="-670" width="150" height="50" as="geometry" />
        </mxCell>
        <mxCell id="CDrKOG7dcPMyQ5WuwZqR-41" value="" style="endArrow=none;html=1;rounded=0;exitX=1;exitY=0.5;exitDx=0;exitDy=0;entryX=0;entryY=0.5;entryDx=0;entryDy=0;" parent="1" source="CDrKOG7dcPMyQ5WuwZqR-3" target="CDrKOG7dcPMyQ5WuwZqR-38" edge="1">
          <mxGeometry width="50" height="50" relative="1" as="geometry">
            <mxPoint x="360" y="-720" as="sourcePoint" />
            <mxPoint x="410" y="-770" as="targetPoint" />
          </mxGeometry>
        </mxCell>
        <mxCell id="CDrKOG7dcPMyQ5WuwZqR-42" value="" style="endArrow=none;html=1;rounded=0;exitX=1;exitY=0.5;exitDx=0;exitDy=0;entryX=0;entryY=0.5;entryDx=0;entryDy=0;" parent="1" source="CDrKOG7dcPMyQ5WuwZqR-3" target="CDrKOG7dcPMyQ5WuwZqR-39" edge="1">
          <mxGeometry width="50" height="50" relative="1" as="geometry">
            <mxPoint x="360" y="-680" as="sourcePoint" />
            <mxPoint x="410" y="-730" as="targetPoint" />
          </mxGeometry>
        </mxCell>
        <mxCell id="CDrKOG7dcPMyQ5WuwZqR-43" value="" style="endArrow=none;html=1;rounded=0;exitX=1;exitY=0.5;exitDx=0;exitDy=0;entryX=0;entryY=0.5;entryDx=0;entryDy=0;" parent="1" source="CDrKOG7dcPMyQ5WuwZqR-3" target="CDrKOG7dcPMyQ5WuwZqR-40" edge="1">
          <mxGeometry width="50" height="50" relative="1" as="geometry">
            <mxPoint x="360" y="-650" as="sourcePoint" />
            <mxPoint x="410" y="-700" as="targetPoint" />
          </mxGeometry>
        </mxCell>
        <mxCell id="CDrKOG7dcPMyQ5WuwZqR-44" value="Přidat mangu" style="ellipse;whiteSpace=wrap;html=1;" parent="1" vertex="1">
          <mxGeometry x="430" y="-290" width="150" height="50" as="geometry" />
        </mxCell>
        <mxCell id="CDrKOG7dcPMyQ5WuwZqR-46" value="Odstranit mangu" style="ellipse;whiteSpace=wrap;html=1;" parent="1" vertex="1">
          <mxGeometry x="430" y="-220" width="150" height="50" as="geometry" />
        </mxCell>
        <mxCell id="CDrKOG7dcPMyQ5WuwZqR-47" value="Přidat postavu" style="ellipse;whiteSpace=wrap;html=1;" parent="1" vertex="1">
          <mxGeometry x="430" y="-150" width="150" height="50" as="geometry" />
        </mxCell>
        <mxCell id="CDrKOG7dcPMyQ5WuwZqR-48" value="Odstranit postavu" style="ellipse;whiteSpace=wrap;html=1;" parent="1" vertex="1">
          <mxGeometry x="430" y="-80" width="150" height="50" as="geometry" />
        </mxCell>
        <mxCell id="CDrKOG7dcPMyQ5WuwZqR-50" value="" style="endArrow=none;html=1;rounded=0;exitX=0.95;exitY=0.721;exitDx=0;exitDy=0;exitPerimeter=0;entryX=0;entryY=0.4;entryDx=0;entryDy=0;entryPerimeter=0;" parent="1" source="CDrKOG7dcPMyQ5WuwZqR-4" target="CDrKOG7dcPMyQ5WuwZqR-46" edge="1">
          <mxGeometry width="50" height="50" relative="1" as="geometry">
            <mxPoint x="370" y="-150" as="sourcePoint" />
            <mxPoint x="420" y="-200" as="targetPoint" />
          </mxGeometry>
        </mxCell>
        <mxCell id="CDrKOG7dcPMyQ5WuwZqR-51" value="" style="endArrow=none;html=1;rounded=0;entryX=1;entryY=1;entryDx=0;entryDy=0;exitX=0;exitY=0.5;exitDx=0;exitDy=0;" parent="1" source="CDrKOG7dcPMyQ5WuwZqR-47" target="CDrKOG7dcPMyQ5WuwZqR-4" edge="1">
          <mxGeometry width="50" height="50" relative="1" as="geometry">
            <mxPoint x="410" y="-150" as="sourcePoint" />
            <mxPoint x="360" y="-220" as="targetPoint" />
          </mxGeometry>
        </mxCell>
        <mxCell id="CDrKOG7dcPMyQ5WuwZqR-52" value="" style="endArrow=none;html=1;rounded=0;exitX=1;exitY=0.5;exitDx=0;exitDy=0;entryX=0;entryY=0.5;entryDx=0;entryDy=0;" parent="1" source="CDrKOG7dcPMyQ5WuwZqR-4" target="CDrKOG7dcPMyQ5WuwZqR-44" edge="1">
          <mxGeometry width="50" height="50" relative="1" as="geometry">
            <mxPoint x="340" y="-290" as="sourcePoint" />
            <mxPoint x="390" y="-340" as="targetPoint" />
          </mxGeometry>
        </mxCell>
        <mxCell id="CDrKOG7dcPMyQ5WuwZqR-53" value="" style="endArrow=none;html=1;rounded=0;exitX=0;exitY=0.5;exitDx=0;exitDy=0;entryX=0.806;entryY=0.894;entryDx=0;entryDy=0;entryPerimeter=0;" parent="1" source="CDrKOG7dcPMyQ5WuwZqR-2" target="CDrKOG7dcPMyQ5WuwZqR-4" edge="1">
          <mxGeometry width="50" height="50" relative="1" as="geometry">
            <mxPoint x="370" y="50" as="sourcePoint" />
            <mxPoint x="390.04999999999995" y="-100" as="targetPoint" />
          </mxGeometry>
        </mxCell>
        <mxCell id="CDrKOG7dcPMyQ5WuwZqR-55" value="Smazat recenzi" style="ellipse;whiteSpace=wrap;html=1;" parent="1" vertex="1">
          <mxGeometry x="420" y="100" width="150" height="50" as="geometry" />
        </mxCell>
        <mxCell id="CDrKOG7dcPMyQ5WuwZqR-57" value="&amp;lt;&amp;lt;extend&amp;gt;&amp;gt;" style="html=1;verticalAlign=bottom;endArrow=open;dashed=1;endSize=8;curved=0;rounded=0;entryX=1;entryY=0.5;entryDx=0;entryDy=0;exitX=0;exitY=0.5;exitDx=0;exitDy=0;" parent="1" source="CDrKOG7dcPMyQ5WuwZqR-55" target="CDrKOG7dcPMyQ5WuwZqR-5" edge="1">
          <mxGeometry relative="1" as="geometry">
            <mxPoint x="400" y="130" as="sourcePoint" />
            <mxPoint x="320" y="130" as="targetPoint" />
          </mxGeometry>
        </mxCell>
        <mxCell id="CDrKOG7dcPMyQ5WuwZqR-58" value="" style="endArrow=none;html=1;rounded=0;exitX=0;exitY=0.5;exitDx=0;exitDy=0;" parent="1" source="CDrKOG7dcPMyQ5WuwZqR-9" edge="1">
          <mxGeometry width="50" height="50" relative="1" as="geometry">
            <mxPoint x="120" y="-90" as="sourcePoint" />
            <mxPoint x="60" y="-720" as="targetPoint" />
          </mxGeometry>
        </mxCell>
        <mxCell id="CDrKOG7dcPMyQ5WuwZqR-59" value="Zrušit objednávku" style="ellipse;whiteSpace=wrap;html=1;" parent="1" vertex="1">
          <mxGeometry x="620" y="-600" width="150" height="50" as="geometry" />
        </mxCell>
        <mxCell id="CDrKOG7dcPMyQ5WuwZqR-60" value="" style="endArrow=none;html=1;rounded=0;exitX=0;exitY=0.5;exitDx=0;exitDy=0;" parent="1" source="CDrKOG7dcPMyQ5WuwZqR-59" edge="1">
          <mxGeometry width="50" height="50" relative="1" as="geometry">
            <mxPoint x="10" y="-450" as="sourcePoint" />
            <mxPoint x="60" y="-720" as="targetPoint" />
            <Array as="points">
              <mxPoint x="300" y="-575" />
            </Array>
          </mxGeometry>
        </mxCell>
        <mxCell id="CDrKOG7dcPMyQ5WuwZqR-61" value="Čas" style="shape=umlActor;verticalLabelPosition=bottom;verticalAlign=top;html=1;outlineConnect=0;" parent="1" vertex="1">
          <mxGeometry x="880" y="-605" width="30" height="60" as="geometry" />
        </mxCell>
        <mxCell id="CDrKOG7dcPMyQ5WuwZqR-62" value="" style="endArrow=none;html=1;rounded=0;exitX=1;exitY=0.5;exitDx=0;exitDy=0;" parent="1" source="CDrKOG7dcPMyQ5WuwZqR-59" target="CDrKOG7dcPMyQ5WuwZqR-61" edge="1">
          <mxGeometry width="50" height="50" relative="1" as="geometry">
            <mxPoint x="1010" y="-580" as="sourcePoint" />
            <mxPoint x="1090" y="-630" as="targetPoint" />
          </mxGeometry>
        </mxCell>
        <mxCell id="CDrKOG7dcPMyQ5WuwZqR-63" value="Prodejna" style="shape=umlActor;verticalLabelPosition=bottom;verticalAlign=top;html=1;outlineConnect=0;" parent="1" vertex="1">
          <mxGeometry x="490" y="-470" width="30" height="60" as="geometry" />
        </mxCell>
        <mxCell id="CDrKOG7dcPMyQ5WuwZqR-64" value="" style="endArrow=none;html=1;rounded=0;entryX=0;entryY=0.5;entryDx=0;entryDy=0;" parent="1" target="CDrKOG7dcPMyQ5WuwZqR-59" edge="1">
          <mxGeometry width="50" height="50" relative="1" as="geometry">
            <mxPoint x="540" y="-460" as="sourcePoint" />
            <mxPoint x="580" y="-450" as="targetPoint" />
          </mxGeometry>
        </mxCell>
        <mxCell id="CDrKOG7dcPMyQ5WuwZqR-65" value="" style="endArrow=none;html=1;rounded=0;entryX=0;entryY=0.5;entryDx=0;entryDy=0;" parent="1" target="CDrKOG7dcPMyQ5WuwZqR-66" edge="1">
          <mxGeometry width="50" height="50" relative="1" as="geometry">
            <mxPoint x="540" y="-460" as="sourcePoint" />
            <mxPoint x="730" y="-460" as="targetPoint" />
          </mxGeometry>
        </mxCell>
        <mxCell id="CDrKOG7dcPMyQ5WuwZqR-66" value="Upravit dostupnost" style="ellipse;whiteSpace=wrap;html=1;" parent="1" vertex="1">
          <mxGeometry x="750" y="-480" width="150" height="50" as="geometry" />
        </mxCell>
        <mxCell id="CDrKOG7dcPMyQ5WuwZqR-67" value="" style="endArrow=none;html=1;rounded=0;" parent="1" edge="1">
          <mxGeometry width="50" height="50" relative="1" as="geometry">
            <mxPoint x="540" y="-460" as="sourcePoint" />
            <mxPoint x="740" y="-340" as="targetPoint" />
          </mxGeometry>
        </mxCell>
        <mxCell id="CDrKOG7dcPMyQ5WuwZqR-68" value="Dodaní objednávky" style="ellipse;whiteSpace=wrap;html=1;" parent="1" vertex="1">
          <mxGeometry x="740" y="-360" width="150" height="50" as="geometry" />
        </mxCell>
        <mxCell id="CDrKOG7dcPMyQ5WuwZqR-70" value="Dodání online mangy" style="ellipse;whiteSpace=wrap;html=1;" parent="1" vertex="1">
          <mxGeometry x="960" y="-360" width="150" height="50" as="geometry" />
        </mxCell>
        <mxCell id="CDrKOG7dcPMyQ5WuwZqR-71" value="" style="endArrow=none;html=1;rounded=0;exitX=0;exitY=0.5;exitDx=0;exitDy=0;" parent="1" source="CDrKOG7dcPMyQ5WuwZqR-73" edge="1">
          <mxGeometry width="50" height="50" relative="1" as="geometry">
            <mxPoint x="740" y="-140" as="sourcePoint" />
            <mxPoint x="540" y="-460" as="targetPoint" />
          </mxGeometry>
        </mxCell>
        <mxCell id="CDrKOG7dcPMyQ5WuwZqR-73" value="Upravit cenu mangy" style="ellipse;whiteSpace=wrap;html=1;" parent="1" vertex="1">
          <mxGeometry x="740" y="-250" width="150" height="50" as="geometry" />
        </mxCell>
        <mxCell id="CDrKOG7dcPMyQ5WuwZqR-74" value="" style="endArrow=none;html=1;rounded=0;exitX=1;exitY=0.5;exitDx=0;exitDy=0;entryX=0;entryY=0.5;entryDx=0;entryDy=0;" parent="1" source="CDrKOG7dcPMyQ5WuwZqR-68" target="CDrKOG7dcPMyQ5WuwZqR-70" edge="1">
          <mxGeometry width="50" height="50" relative="1" as="geometry">
            <mxPoint x="900" y="-170" as="sourcePoint" />
            <mxPoint x="950" y="-220" as="targetPoint" />
          </mxGeometry>
        </mxCell>
        <mxCell id="CDrKOG7dcPMyQ5WuwZqR-75" value="Správce" style="shape=umlActor;verticalLabelPosition=bottom;verticalAlign=top;html=1;outlineConnect=0;" parent="1" vertex="1">
          <mxGeometry x="720" y="-1040" width="30" height="60" as="geometry" />
        </mxCell>
        <mxCell id="CDrKOG7dcPMyQ5WuwZqR-76" value="" style="endArrow=none;html=1;rounded=0;entryX=0;entryY=0.5;entryDx=0;entryDy=0;" parent="1" target="CDrKOG7dcPMyQ5WuwZqR-83" edge="1">
          <mxGeometry width="50" height="50" relative="1" as="geometry">
            <mxPoint x="760" y="-990" as="sourcePoint" />
            <mxPoint x="920" y="-870" as="targetPoint" />
          </mxGeometry>
        </mxCell>
        <mxCell id="CDrKOG7dcPMyQ5WuwZqR-77" value="" style="endArrow=none;html=1;rounded=0;" parent="1" edge="1">
          <mxGeometry width="50" height="50" relative="1" as="geometry">
            <mxPoint x="760" y="-990" as="sourcePoint" />
            <mxPoint x="900" y="-1050" as="targetPoint" />
          </mxGeometry>
        </mxCell>
        <mxCell id="CDrKOG7dcPMyQ5WuwZqR-80" value="&amp;lt;&amp;lt;extend&amp;gt;&amp;gt;" style="html=1;verticalAlign=bottom;endArrow=open;dashed=1;endSize=8;curved=0;rounded=0;entryX=1;entryY=0.5;entryDx=0;entryDy=0;" parent="1" target="CDrKOG7dcPMyQ5WuwZqR-9" edge="1">
          <mxGeometry relative="1" as="geometry">
            <mxPoint x="440" y="265" as="sourcePoint" />
            <mxPoint x="370" y="155" as="targetPoint" />
          </mxGeometry>
        </mxCell>
        <mxCell id="CDrKOG7dcPMyQ5WuwZqR-81" value="Zrušit odběr" style="ellipse;whiteSpace=wrap;html=1;" parent="1" vertex="1">
          <mxGeometry x="440" y="240" width="150" height="50" as="geometry" />
        </mxCell>
        <mxCell id="CDrKOG7dcPMyQ5WuwZqR-82" value="Přidat mangu do databáze" style="ellipse;whiteSpace=wrap;html=1;" parent="1" vertex="1">
          <mxGeometry x="900" y="-1070" width="150" height="50" as="geometry" />
        </mxCell>
        <mxCell id="CDrKOG7dcPMyQ5WuwZqR-83" value="Upravit data o manze" style="ellipse;whiteSpace=wrap;html=1;" parent="1" vertex="1">
          <mxGeometry x="900" y="-930" width="150" height="50" as="geometry" />
        </mxCell>
        <mxCell id="CDrKOG7dcPMyQ5WuwZqR-84" value="" style="endArrow=none;html=1;rounded=0;entryX=0;entryY=0.5;entryDx=0;entryDy=0;" parent="1" target="CDrKOG7dcPMyQ5WuwZqR-85" edge="1">
          <mxGeometry width="50" height="50" relative="1" as="geometry">
            <mxPoint x="760" y="-990" as="sourcePoint" />
            <mxPoint x="1000" y="-970" as="targetPoint" />
          </mxGeometry>
        </mxCell>
        <mxCell id="CDrKOG7dcPMyQ5WuwZqR-85" value="Přidat vydavatele" style="ellipse;whiteSpace=wrap;html=1;" parent="1" vertex="1">
          <mxGeometry x="900" y="-1000" width="150" height="50" as="geometry" />
        </mxCell>
        <mxCell id="CDrKOG7dcPMyQ5WuwZqR-88" value="Přidat novou kapitolu" style="ellipse;whiteSpace=wrap;html=1;" parent="1" vertex="1">
          <mxGeometry x="900" y="-860" width="150" height="50" as="geometry" />
        </mxCell>
        <mxCell id="CDrKOG7dcPMyQ5WuwZqR-89" value="" style="endArrow=none;html=1;rounded=0;exitX=0;exitY=0.5;exitDx=0;exitDy=0;" parent="1" source="CDrKOG7dcPMyQ5WuwZqR-88" edge="1">
          <mxGeometry width="50" height="50" relative="1" as="geometry">
            <mxPoint x="680" y="-740" as="sourcePoint" />
            <mxPoint x="760" y="-990" as="targetPoint" />
          </mxGeometry>
        </mxCell>
        <mxCell id="CDrKOG7dcPMyQ5WuwZqR-93" value="Poslat notifikaci&lt;br&gt;o nové kapitole" style="ellipse;whiteSpace=wrap;html=1;" parent="1" vertex="1">
          <mxGeometry x="1000" y="-600" width="150" height="50" as="geometry" />
        </mxCell>
        <mxCell id="RWk_qs9eGR9L0qjsBkZ2-3" value="" style="endArrow=none;html=1;rounded=0;entryX=0;entryY=0.5;entryDx=0;entryDy=0;" parent="1" source="CDrKOG7dcPMyQ5WuwZqR-61" target="CDrKOG7dcPMyQ5WuwZqR-93" edge="1">
          <mxGeometry width="50" height="50" relative="1" as="geometry">
            <mxPoint x="1030" y="-525" as="sourcePoint" />
            <mxPoint x="1080" y="-575" as="targetPoint" />
          </mxGeometry>
        </mxCell>
        <mxCell id="SPDCw6Vr-svHRckBFiVp-1" value="Správa uživatelů" style="ellipse;whiteSpace=wrap;html=1;" parent="1" vertex="1">
          <mxGeometry x="900" y="-790" width="150" height="50" as="geometry" />
        </mxCell>
        <mxCell id="SPDCw6Vr-svHRckBFiVp-2" value="" style="endArrow=none;html=1;rounded=0;exitX=0.08;exitY=0.254;exitDx=0;exitDy=0;exitPerimeter=0;" parent="1" source="SPDCw6Vr-svHRckBFiVp-1" edge="1">
          <mxGeometry width="50" height="50" relative="1" as="geometry">
            <mxPoint x="910" y="-780" as="sourcePoint" />
            <mxPoint x="760" y="-990" as="targetPoint" />
          </mxGeometry>
        </mxCell>
        <mxCell id="D5XFSRVebdZl13hLPxt2-1" value="" style="endArrow=none;html=1;rounded=0;exitX=0;exitY=0.5;exitDx=0;exitDy=0;entryX=0.829;entryY=0.895;entryDx=0;entryDy=0;entryPerimeter=0;" parent="1" source="CDrKOG7dcPMyQ5WuwZqR-48" target="CDrKOG7dcPMyQ5WuwZqR-4" edge="1">
          <mxGeometry width="50" height="50" relative="1" as="geometry">
            <mxPoint x="460" y="-220" as="sourcePoint" />
            <mxPoint x="310" y="-250" as="targetPoint" />
          </mxGeometry>
        </mxCell>
        <mxCell id="D5XFSRVebdZl13hLPxt2-3" value="Odhlásit se" style="ellipse;whiteSpace=wrap;html=1;" parent="1" vertex="1">
          <mxGeometry x="190" y="-870" width="150" height="50" as="geometry" />
        </mxCell>
        <mxCell id="D5XFSRVebdZl13hLPxt2-4" value="" style="endArrow=none;html=1;rounded=0;" parent="1" target="D5XFSRVebdZl13hLPxt2-3" edge="1">
          <mxGeometry width="50" height="50" relative="1" as="geometry">
            <mxPoint x="60" y="-720" as="sourcePoint" />
            <mxPoint x="110" y="-770" as="targetPoint" />
          </mxGeometry>
        </mxCell>
      </root>
    </mxGraphModel>
  </diagram>
</mxfile>
